PathFileType	3	(X/Y/Z)	results
DataRate	CameraRate	NumFrames	NumMarkers	Units	OrigDataRate	OrigDataStartFrame	OrigNumFrames
30.0	30.0	4	85	mm	30.0	1	179
Frame#	Time	head			nose			neck			shoulder_r			elbow_r			wrist_r			shoulder_l			elbow_l			wrist_l			hip_r			knee_r			ankle_r			hip_l			knee_l			ankle_l			heel_r			heel_l			mtoe_r			ltoe_r			mtoe_l			ltoe_l			asis_l			asis_r			psi_r			psi_l			mhnd_r			lhnd_r			mhnd_l			lhnd_l			l_lat_knee			r_med_wrist			l_lat_ankle			r_med_ankle			r_lat_knee			xiphoid			l_med_ankle			r_med_knee			l_med_elbow			navel			r_lat_elbow			r_lat_wrist			l_med_wrist			l_lat_elbow			l_med_knee			r_med_elbow			r_lat_ankle			l_lat_wrist			chin			T10			r_eye			l_eye			l_ear			r_ear			spinal_cord_8			spinal_cord_12			spinal_cord_27			spinal_cord_33			up_arm_r_0			up_arm_r_5			up_arm_l_0			up_arm_l_5			front_torso_11			front_torso_7			front_torso_4			front_torso_1			front_torso_10			thigh_r_2			thigh_r_3			thigh_l_1			thigh_l_5			shank_l_0			shank_l_4			shank_r_1			shank_r_2			foot_r_1			foot_r_3			foot_r_5			foot_r_6			foot_r_7			foot_l_1			foot_l_7			foot_l_0			foot_l_4			foot_l_5			foot_l_6			
		X1	Y1	Z1	X2	Y2	Z2	X3	Y3	Z3	X4	Y4	Z4	X5	Y5	Z5	X6	Y6	Z6	X7	Y7	Z7	X8	Y8	Z8	X9	Y9	Z9	X10	Y10	Z10	X11	Y11	Z11	X12	Y12	Z12	X13	Y13	Z13	X14	Y14	Z14	X15	Y15	Z15	X16	Y16	Z16	X17	Y17	Z17	X18	Y18	Z18	X19	Y19	Z19	X20	Y20	Z20	X21	Y21	Z21	X22	Y22	Z22	X23	Y23	Z23	X24	Y24	Z24	X25	Y25	Z25	X26	Y26	Z26	X27	Y27	Z27	X28	Y28	Z28	X29	Y29	Z29	X30	Y30	Z30	X31	Y31	Z31	X32	Y32	Z32	X33	Y33	Z33	X34	Y34	Z34	X35	Y35	Z35	X36	Y36	Z36	X37	Y37	Z37	X38	Y38	Z38	X39	Y39	Z39	X40	Y40	Z40	X41	Y41	Z41	X42	Y42	Z42	X43	Y43	Z43	X44	Y44	Z44	X45	Y45	Z45	X46	Y46	Z46	X47	Y47	Z47	X48	Y48	Z48	X49	Y49	Z49	X50	Y50	Z50	X51	Y51	Z51	X52	Y52	Z52	X53	Y53	Z53	X54	Y54	Z54	X55	Y55	Z55	X56	Y56	Z56	X57	Y57	Z57	X58	Y58	Z58	X59	Y59	Z59	X60	Y60	Z60	X61	Y61	Z61	X62	Y62	Z62	X63	Y63	Z63	X64	Y64	Z64	X65	Y65	Z65	X66	Y66	Z66	X67	Y67	Z67	X68	Y68	Z68	X69	Y69	Z69	X70	Y70	Z70	X71	Y71	Z71	X72	Y72	Z72	X73	Y73	Z73	X74	Y74	Z74	X75	Y75	Z75	X76	Y76	Z76	X77	Y77	Z77	X78	Y78	Z78	X79	Y79	Z79	X80	Y80	Z80	X81	Y81	Z81	X82	Y82	Z82	X83	Y83	Z83	X84	Y84	Z84	X85	Y85	Z85	
1	0.03333333333333333	-1682.9114376436457	1615.7611128116616	-622.7979035104097	-1748.1119191864457	1414.0281107994451	-689.6092849238138	-1579.467221423321	1279.6493883278267	-632.514109695957	-1543.2701767939952	1239.1373278926164	-788.6126583406234	-1423.1006322871156	1019.3042571300637	-804.6495342830917	-1394.5553661410981	816.2868798740265	-844.5934084384911	-1650.9585812871785	1233.9947532082963	-479.3977917537932	-1662.601909765358	995.682321638297	-435.028677151843	-1742.3679439443406	826.0317525546321	-526.684028228494	-1484.2308500470058	816.0917769980672	-683.1770158180211	-1616.8244874614631	466.1331336951777	-650.5981909762193	-1809.981222419575	145.17511123088377	-669.1231660502743	-1522.559882762376	825.9892881611594	-525.6371945061063	-1345.777681800659	496.3472321354274	-611.7479886398975	-1197.7133001833595	164.43273962788797	-717.2796822740842	-1812.8283498639512	94.39535910422346	-669.7213365511785	-1157.4830030244837	125.87096517249083	-750.6454137930642	-2011.9695389337653	99.75565542808468	-660.5298591441513	-1961.089171968044	100.38675853110722	-720.963431831445	-1295.1151097899076	3.5977495162088924	-649.7551676250372	-1204.682052077567	2.5649859937769137	-641.6030671716981	-1569.3941962942608	877.3363272743638	-503.04566071911603	-1510.3504629127685	860.5854965569033	-732.8642956314875	-1417.703971514908	890.7803037388238	-629.7466634827543	-1441.6026455199835	895.0319145608124	-552.2863108459345	-1355.0346357386363	755.9389369400491	-857.9322774518721	-1402.5298218700316	732.0853822639448	-864.5849068872639	-1760.9324007026605	752.415182800457	-533.7958777521646	-1780.9924082259147	767.9411973466084	-580.8308253357127	-1320.5284646533312	491.749069330195	-568.9277725754544	-1372.0950099254749	828.8154622799391	-849.9901932929467	-1149.3602960321	161.97523707490413	-694.186894661417	-1822.6078858333617	140.1113408114847	-634.71066008823	-1619.5782641026383	452.70248508924044	-691.1009080426277	-1633.1178623911462	1102.5856424218712	-647.798076991213	-1222.9404701411781	143.7048852305909	-727.4811104002017	-1629.7145365348879	468.2078479077162	-611.3995388236901	-1629.8746496976473	1002.1801763604366	-435.60972265526027	-1605.4190446960965	894.8054298179582	-639.2012686084631	-1434.8929345682193	1022.6639201634833	-841.0219704788186	-1420.022399157144	816.8132056667965	-830.7758583717629	-1742.1571220704943	821.3915261972385	-498.0263702301678	-1695.836502663289	1009.24449473519	-426.33313075636295	-1384.1313267957116	481.36439222356194	-638.5460081263122	-1417.118976596039	1026.6928057901398	-770.5679948040013	-1825.9165798110196	136.81693632029857	-714.5935477852029	-1746.5948940982398	846.3810520965407	-545.3629586642658	-1711.905482212519	1341.2128084667715	-681.683803200746	-1457.6353384218673	1151.3294664502782	-604.716515481705	-1738.9130928549578	1450.9635535404275	-718.335714304902	-1773.6749018756775	1440.4738333097498	-655.9757629467563	-1709.106500935507	1448.1681264468634	-555.3072241281307	-1619.843888775447	1471.5509271700766	-708.7126643364735	-1546.3904835451526	1344.566477091448	-624.031756164496	-1477.32318883599	1244.9609993917177	-606.7910941412489	-1440.4411712216968	1006.4590553716453	-612.9263537151612	-1467.6481889204556	1139.77271884955	-607.1015334665097	-1522.8207343405898	1109.562184558002	-800.2329966844402	-1440.4591159576794	1125.8927695416191	-812.1091136507703	-1678.1690824748423	1189.0429231339415	-460.26291899688425	-1622.6461022413102	1062.5202011414776	-435.46869728676694	-1563.8868558036197	928.7344818716205	-676.4251750030407	-1644.0963034320544	1015.2700914432373	-651.8955465194373	-1661.6856840909954	1143.554964784063	-591.0059152172145	-1600.863106584163	958.9200967815898	-569.5259956621434	-1643.946786801556	1181.0778000790056	-728.7178727164854	-1561.178947339053	628.8912841504468	-648.9645549780214	-1561.6278092669604	583.5857797098156	-737.0530919961675	-1421.9506888397764	586.6339254396682	-625.4501839225175	-1436.3426237619374	731.9227220547743	-455.98799840127714	-1185.6371508891639	251.54865138842052	-646.220574770783	-1328.1771041874654	358.0416850996534	-676.5296336089364	-1703.4521494144299	334.0845706985145	-714.6422569553257	-1718.3706199529036	296.81527986104095	-621.2459951449199	-1997.062291803681	95.17673050225115	-682.3886803243777	-1982.8203421772355	98.69569205761341	-703.9345142152548	-1938.1156162913794	103.08864933819325	-651.3880446871977	-1926.9016772469272	112.6179185844979	-683.4031018052657	-1917.9077768599411	103.86187588851305	-712.6206335715256	-1243.376496654444	-4.853756234216161	-643.140443967752	-1174.9284482191597	68.671664167445	-665.0972945702825	-1228.3495055284452	-4.756964516373293	-638.9376398352377	-1261.4577163059462	-4.638966021003818	-648.6264557230248	-1225.5246961332784	36.4161828335412	-663.1546319530953	-1231.878787474975	69.71450013274341	-686.3497331468195	
2	0.06666666666666667	-1731.7324392784806	1609.8248905039761	-623.3289786584169	-1804.0940186107177	1408.0419815871458	-682.1382218625911	-1640.5116348223687	1270.6081521014403	-622.2146865232156	-1600.916755620507	1231.6593065173595	-785.551744780165	-1480.3075632790278	1012.1286392826065	-802.4096415670964	-1478.9126397752095	805.6558552288542	-833.928594648069	-1698.491954131938	1231.8241646635886	-479.9533199465779	-1695.8919144578763	994.5768308111226	-428.92447670075154	-1789.645720229596	826.8467778611061	-510.2970299404125	-1566.74853566185	828.8135385751685	-697.0057607864009	-1692.8117661918327	475.67469114832903	-666.8496795137016	-1842.6369560589633	131.86978672279355	-671.0151710320573	-1575.5565575172786	808.2552973774834	-536.1155863040492	-1386.4357502800983	482.24547300810553	-610.2373633307234	-1170.8936631495765	176.9552357384473	-669.9592982022987	-1841.9594957514312	77.16028735762039	-668.8233956488546	-1114.7458938907407	140.88391741230134	-678.9500166938197	-2040.7554729965707	91.72000498311145	-662.6102425396169	-1989.2414816061237	86.71714861963764	-722.298657334072	-1285.6644386871299	21.98536826352647	-705.8231241892844	-1220.2595852222348	10.661887037871548	-643.8582536119485	-1610.5377051481894	857.736359315296	-495.27084896280365	-1594.9413084783312	885.184110073926	-731.0392334496643	-1482.6614302319135	883.7050978837215	-644.3248386068275	-1492.0048550568358	873.474588345643	-564.341301978748	-1447.7467066988258	740.1703434745265	-844.974867332328	-1498.0199725759603	722.4665079070086	-850.2866654263511	-1808.8876595462928	753.2984657970517	-516.2139856281956	-1836.8160514648275	769.9460007308467	-558.6240295939856	-1371.241315850826	473.73133833490897	-563.6164005858437	-1455.0813749757408	814.9140259293779	-840.0043957094332	-1146.8863569350156	166.60218604327937	-623.1213565384819	-1854.3323873896338	126.57902413101563	-636.3089801779721	-1707.2269868722394	467.403730407586	-706.0745721381691	-1692.276894890647	1093.0853602521822	-638.6334949726199	-1182.235357013412	160.5584923327965	-697.7556284240534	-1692.9938458583952	473.39674204690846	-625.7192981438772	-1663.9850862670223	1001.7362772459566	-435.5825487154341	-1661.5661499760447	885.5963455833788	-634.2854719322208	-1492.4499918731083	1015.4047122622314	-838.6743436514801	-1503.9225527554624	810.0677250828614	-819.9711186427687	-1784.478469783296	821.4182487480157	-482.2494257120135	-1727.335111571658	1007.669943357709	-414.6423553448907	-1417.73189680235	471.1585336205073	-646.2715327387702	-1474.026157695137	1019.5817915100847	-768.3961640157139	-1857.5661854142713	119.71475689387273	-715.9676312413026	-1797.1056612112877	847.6675797295185	-527.3764629456465	-1768.376694403364	1334.8496005213271	-675.5856881487497	-1516.1589435522344	1143.5550639935707	-600.4055763495078	-1796.450796939741	1444.400843968496	-712.0324917175021	-1826.8859917184457	1435.3575514314118	-647.2320371730145	-1755.3185664328043	1443.6691003022534	-551.4643127138872	-1676.7406743110237	1463.441026851053	-711.0963401239934	-1608.0415574771848	1335.8326983285929	-613.7469849284823	-1537.1417337734338	1236.9279561501337	-600.3361763539359	-1497.3209137367965	999.0818860871043	-611.5009057226332	-1526.0894708386647	1131.9006042746332	-602.6554868977256	-1580.226125030201	1102.1233995058326	-797.1825801131224	-1498.0242467022483	1118.6592093949591	-809.8547754014045	-1720.6457620196531	1186.8375097089252	-455.20192747251946	-1658.3759856874278	1062.1962332339049	-438.0969253147261	-1621.7072855295125	920.6746162402374	-672.2658398542131	-1702.2242157793978	1005.7022761406529	-643.7879382228089	-1719.5410334174467	1132.759763165852	-580.3019944408243	-1655.6182629805767	948.6641169891203	-563.7647685729689	-1706.7447921074704	1172.6838059726952	-717.8866661822357	-1634.7071567643118	638.0884736643518	-663.2255578769503	-1662.2541386247249	603.36571858364	-751.8137886620532	-1456.8045213411483	575.8694630037459	-632.3995948827181	-1507.7430708831896	706.1993975747072	-457.89238339967767	-1214.1019055510046	244.22939159789553	-590.0115154638863	-1318.4341707265592	362.2409950436426	-678.1312264169976	-1761.8208466091276	331.05722187809016	-724.8699483332116	-1771.3146836777323	295.90280649807676	-629.9570584820559	-2025.828556416621	85.26817096144529	-683.9775454352805	-2011.2105809380662	86.94029258472005	-705.4940037829953	-1966.930435719545	92.33609292505429	-652.6821099694282	-1954.9566934561485	99.54450181651517	-685.0269955156419	-1946.041968161979	88.76903170792347	-713.5864003981967	-1249.494315039458	7.508576955138457	-670.1270280943558	-1182.1148743173603	75.73416779283704	-632.9987936757066	-1240.408529212733	5.542935711450175	-657.5943450645428	-1260.1570074172112	10.253286076110063	-685.4843236570257	-1222.8969281131683	48.8623304115916	-667.9115243203399	-1213.210144660649	85.22760251120661	-684.3705140399138	
3	0.1	-1781.18198979869	1605.4500542635478	-622.3091369166813	-1859.5031005770402	1404.3813696178297	-675.6781845185205	-1701.2634769472602	1265.9188452486628	-611.4173088278302	-1659.8615712630994	1223.979580692871	-780.7216167613881	-1540.406750500891	1005.0411893622253	-809.3748262866103	-1557.3870334569813	798.4505007353391	-835.033316756814	-1745.9734394643024	1228.613860648343	-476.3637287442115	-1735.5934573097886	991.52415391916	-425.5924041312052	-1822.958626462431	820.5490452595044	-507.3204814228391	-1622.0277272070207	822.8633992060893	-705.3129142418367	-1787.2521331186038	486.6114127951818	-662.5957477735083	-1869.158010089688	121.01165091372434	-679.7710956646581	-1620.4567141349814	797.650123997467	-544.8520359995335	-1438.7194546030187	462.47573083945406	-598.1484199010175	-1180.0266014442325	189.2012739779055	-638.4759384602212	-1862.6471378190183	62.26158549534894	-678.4598808224364	-1119.1879559494866	155.49887297411237	-638.2132518670354	-2060.183158468522	81.47717748968178	-658.9480693224942	-2013.7357135715042	65.84585750477709	-720.9135713337874	-1279.565896237428	43.2468083044034	-714.045752141303	-1230.212794199196	25.143102941921182	-640.0039501585686	-1658.406530243621	842.0803089104979	-500.96446515699455	-1657.7527818871156	876.6561760869536	-736.3098278825388	-1541.7199537703823	885.2396124823207	-655.1245322439324	-1545.8678580290953	872.1591892360193	-575.118117111387	-1532.3621029090696	730.5335776530761	-846.9803743264833	-1584.0952960756285	716.6537588078729	-847.2442082936958	-1839.5817743066114	746.3676106212201	-513.2704823897851	-1867.8344763847886	761.9926329241546	-555.8544092521827	-1433.1937071450222	452.2375182483585	-550.3283431120459	-1533.5883086055114	805.709520454077	-843.4882320944566	-1166.594243160341	174.30969386194045	-588.7251418680421	-1881.7736233613891	112.87622177432365	-645.9486761635366	-1803.859298538937	480.2977434611167	-700.8925970003244	-1753.927037274901	1088.8436603102766	-629.7063585418849	-1182.4801061830444	176.0796746190929	-669.9708131634485	-1781.3470381358707	483.6491946876827	-622.2959402231609	-1703.9100261219985	999.7756481790303	-432.0504465632847	-1722.8720979797583	881.4013569968499	-633.8328470243357	-1555.8089433307312	1008.3994508472673	-844.3718887266176	-1580.60781772699	805.077019377618	-819.0128327473873	-1817.7637999869128	815.3278438634422	-479.23863065886036	-1767.5492652310404	1003.5189347028113	-411.48443456186476	-1460.9987310942065	457.02642732589095	-640.9032364631222	-1531.088879656383	1012.3948156919924	-776.0428048642464	-1878.7227881113483	107.25199882210612	-725.7116802698098	-1831.0454285765734	841.0819354177239	-524.4630481790596	-1824.5075180518938	1330.7237356323074	-670.6136260907058	-1575.6391566787777	1138.5904167526965	-602.0515326042762	-1853.014535237965	1440.4483582152911	-706.1925079533775	-1879.94652887633	1432.228507618767	-639.7524379268107	-1803.0874998841339	1440.0803004038294	-548.1365317359927	-1733.1805056934109	1457.7722817585093	-711.989527875148	-1668.328485450745	1330.9403476044256	-603.1868841631117	-1596.6218079408416	1231.861235905884	-597.6855353510311	-1557.5196875836248	994.5747997757148	-618.8343733074528	-1585.6934292652088	1126.983757433392	-603.9753213674209	-1639.7957139114296	1094.5793655948573	-794.7171671755758	-1559.1532222348717	1111.5205192222002	-814.7409578438857	-1766.728388830008	1182.8650398851653	-451.7975073630906	-1700.3498905543956	1060.3949652362855	-434.4617141369823	-1685.7192615052993	917.7307072469736	-673.3495213155602	-1764.1529189537503	1001.6328196820511	-636.8492912543102	-1777.1680467996289	1126.643091078645	-568.4608365805658	-1712.159839673316	942.2990087530686	-561.9801206694108	-1773.8174200960275	1170.78929677043	-705.3078340178843	-1708.1633866142786	640.9106197364941	-665.1960736664307	-1747.9761366534053	610.6651101303404	-750.7094331293459	-1496.4719486049944	563.2296901553505	-628.8203070028151	-1576.5060975263607	687.4231032221128	-460.88006259556823	-1248.5430808583012	240.10558221686708	-564.3230175856894	-1342.7582681989072	360.0330220309707	-660.8525530500615	-1824.0915103070454	332.92226154077133	-726.3556275344048	-1832.6551074214105	294.5683276188453	-632.6002912592427	-2047.0866652861198	71.3513247311883	-680.089252025918	-2034.2606474011666	69.22162264991402	-702.6812154621376	-1985.7922449267573	82.27148358527883	-655.1474680692813	-1976.450184951547	83.89475726682875	-689.0829094471205	-1969.9582196319495	68.45095270363218	-716.1118934694674	-1252.6184213404736	24.929849591820652	-672.4478047413116	-1195.4614863991844	88.15830540688498	-614.9284755416281	-1246.6671508514407	21.684917598896874	-658.3930479151894	-1259.4521130576663	29.23022582303883	-689.53231192428	-1227.1617821321147	65.32793167763846	-660.51395133097	-1213.8706402460411	102.7513375180417	-671.0020099593726	
4	0.13333333333333333	-1832.3062134883423	1604.1525782396136	-620.5710573408064	-1914.2254356838675	1403.7010197100637	-670.7654922773204	-1760.0765669660507	1264.248308713398	-606.5834897396801	-1721.5456960815923	1217.412203924557	-776.3480433623994	-1603.6159272787454	1000.5656257804234	-822.1149636779064	-1623.857422200446	794.3600822064308	-848.4959502496492	-1796.6280482073714	1226.1091130966374	-467.0508278527173	-1780.976681226755	987.4431591904871	-425.93395020955563	-1842.4892268788763	808.3449433404714	-513.5962282245324	-1680.4261234344815	816.5537358685506	-699.7732468916446	-1865.786095297233	488.3378634406765	-675.2114192170117	-1891.894009164476	114.21829924246668	-679.6475958371389	-1666.5144002931445	795.2534823805331	-539.3406007883827	-1512.69565002761	444.24916578593155	-589.3329832999693	-1216.8561866378666	209.55276000600426	-614.309748839223	-1878.3037940220872	55.4790471351661	-675.7034096745346	-1151.9920377098797	182.5766695107927	-610.1669233857822	-2076.679759359	61.15611351930528	-656.0774953859982	-2029.333131782129	43.0013419169498	-716.6590756444142	-1296.306413096797	58.249509586726155	-698.4182475308695	-1250.8766632505606	43.21574991575089	-621.2445138609099	-1705.1358494969527	837.4357197766476	-493.85003849025264	-1722.3988497176374	866.5225645155327	-729.3055587501358	-1602.5263544593965	886.4166830682004	-656.0720026667113	-1600.4517880937392	874.8865673997396	-575.7471518951762	-1600.4616329946637	726.5722397828357	-863.959883819581	-1651.9615532211294	712.7721324437334	-858.825927368329	-1852.4910626923258	732.9719675573954	-519.3836804027198	-1875.3099208711612	745.3715451367204	-566.0880432714706	-1513.4746915462438	433.3431204841256	-541.9919090647112	-1601.0879613016402	801.696659256342	-859.3718204570476	-1205.3453783044956	195.1064494298267	-563.9496994823921	-1904.8230490466462	105.56309157993348	-646.0734648065841	-1873.3228424245406	480.4471982712069	-715.7963308871804	-1813.7789079782324	1087.1525212762817	-621.3042807723982	-1215.0938838885793	197.17695456788425	-646.1508687407937	-1865.0934841015946	486.4147936880924	-634.6043730535398	-1749.1851111858846	997.5240505875382	-427.07630934043664	-1783.2289921815677	879.6394826321653	-625.6387707427031	-1622.7339703098778	1004.3974358691199	-855.1772912684316	-1645.1968429209041	800.8061238256853	-829.9797640849665	-1841.074802529672	804.1776749964183	-484.900047524509	-1815.308541883526	997.142341942975	-416.3771500601775	-1527.4720196470853	445.6927123657029	-635.0049549180876	-1590.836706144121	1007.3987731978808	-789.8361503022977	-1897.0465443142232	97.46982655396003	-725.30162481906	-1849.494401485615	827.7900840772575	-532.4025455708382	-1879.7317578912762	1329.7414989537067	-666.7701106285707	-1634.320093789564	1136.7754081134538	-602.3780911511207	-1908.482832629148	1439.6547475430732	-701.5616778593323	-1933.1564490477385	1431.793400544145	-634.2074426065147	-1853.0861818073572	1439.116384081309	-545.3392172900612	-1788.7739642910108	1455.8930588113496	-711.5628024034465	-1726.7038872312264	1329.2644611930934	-600.3054735170628	-1654.9495974753888	1230.104312522854	-597.5907671674128	-1617.2030977690367	992.6333273688138	-619.1275938738286	-1644.469273626636	1125.173732156296	-603.7561929694692	-1701.7673563492615	1088.5622310603715	-795.0411303305017	-1623.9321172078287	1106.885814817608	-823.2738802646609	-1818.3000028445997	1178.194587520813	-448.0311964581243	-1748.6496155520697	1058.287013845759	-426.2011421758268	-1747.9307343193461	915.6728051402168	-667.0797547519619	-1824.4460149556664	999.9172913498401	-627.4319520542674	-1834.0584724899397	1125.3535562862107	-559.2609440000961	-1769.0625624758363	940.946702149816	-554.7386448155333	-1837.099738576554	1168.678347587451	-696.3774201916614	-1779.3589417053026	639.3030556734423	-669.2770091671171	-1804.4095233810567	606.7363546088151	-759.411680094132	-1554.234482098231	554.1719752495237	-620.8805254334121	-1645.510447822896	676.8637900700667	-457.6358894070603	-1297.115132489847	248.5285799660244	-544.8561723151639	-1399.174881099388	357.5678820107706	-646.2035052169741	-1876.352277436353	328.58614585936164	-733.6114339163256	-1883.774216277425	292.92754233194665	-638.7019963391945	-2062.892137103433	49.9946566588088	-676.234975068538	-2050.005532038125	46.59650409959926	-698.6364738290833	-2002.5693256186958	68.10989911740442	-653.1840568922173	-1993.4838292970885	67.01716248342096	-687.2102668894123	-1985.8807434643588	49.47290219255219	-712.6192162388785	-1270.850795541195	41.621555827245444	-655.2026334969538	-1223.5720569985465	108.5545197522438	-593.0904342905773	-1265.6395591219034	38.665171895169884	-640.7947813828397	-1276.818340409254	45.604211250310804	-672.6840472821538	-1249.897802989767	83.85143277513667	-641.057953602297	-1239.2050819084218	122.44815140793402	-650.1751986785965	
